<?xml version="1.0" encoding="UTF-8"?>
<svg xmlns="http://www.w3.org/2000/svg" xmlns:xlink="http://www.w3.org/1999/xlink" width="40" height="40" viewBox="0 0 40 40">
  <defs>
    <path id="prefix__a" d="M0 0.158L39.239 0.158 39.239 39.748 0 39.748z"></path>
  </defs>
  <g fill="none" fill-rule="evenodd">
    <path fill="#D8127D" d="M11.112 36.557L3.99 29.89h14.374l-7.252 6.667zm0-16.244l7.252 6.667H3.99l7.122-6.667zM20.875 24.602L26.065 29.793 35.502 20.356 35.502 26.725 26.065 36.162 20.875 30.854zM9.075 11.056L3.994 5.975 3.994 3.812 6.048 3.812 11.238 8.894 16.428 3.812 18.482 3.812 18.482 5.975 13.292 11.056 18.482 16.138 18.482 18.301 16.428 18.301 11.238 13.111 6.048 18.301 3.994 18.301 3.994 16.138z"></path>
    <g transform="translate(0 .094)">
      <path fill="#D8127D" d="M28.143 3.505c4.144 0 7.504 3.36 7.504 7.504s-3.36 7.503-7.504 7.503-7.503-3.359-7.503-7.503S24 3.505 28.143 3.505"></path>
      <mask id="prefix__b" fill="#fff">
        <use xlink:href="#prefix__a"></use>
      </mask>
      <path fill="#D8127D" d="M1.252.158h36.735c.168 0 .329.034.476.096.153.063.29.156.405.271h.002c.117.117.21.255.274.409.061.147.095.308.095.476v37.086c0 .168-.034.33-.095.477-.064.153-.158.292-.272.406l-.002.002c-.114.115-.253.208-.406.272-.148.061-.31.095-.477.095H1.252c-.167 0-.329-.034-.476-.095-.154-.064-.292-.157-.406-.272l-.003-.002c-.114-.115-.207-.253-.271-.406-.062-.148-.096-.31-.096-.477V1.41c0-.168.034-.329.096-.476C.16.78.253.642.367.527L.37.525C.373.525.713.279.776.254c.147-.062.309-.096.476-.096zm.593 37.745h35.55v-35.9H1.844v35.9z" mask="url(#prefix__b)"></path>
    </g>
  </g>
</svg>

